<?xml version="1.0" standalone="no"?>
<!DOCTYPE svg PUBLIC "-//W3C//DTD SVG 20010904//EN"
 "http://www.w3.org/TR/2001/REC-SVG-20010904/DTD/svg10.dtd">
<svg version="1.0" xmlns="http://www.w3.org/2000/svg"
 width="260.000000pt" height="260.000000pt" viewBox="0 0 260.000000 260.000000"
 preserveAspectRatio="xMidYMid meet">
<metadata>
Created by potrace 1.11, written by Peter Selinger 2001-2013
</metadata>
<g transform="translate(0.000000,260.000000) scale(0.100000,-0.100000)"
fill="#000000" stroke="none">
<path d="M1307 2465 c-4 -8 -15 -12 -27 -10 -11 2 -20 0 -20 -6 0 -5 -9 -9
-21 -9 -11 0 -18 -4 -15 -8 3 -5 -6 -25 -19 -44 -21 -31 -26 -67 -15 -98 2 -3
2 -8 1 -12 0 -5 4 -8 10 -8 5 0 7 -4 4 -10 -3 -5 -2 -10 3 -10 5 0 15 -11 22
-25 7 -13 17 -22 22 -19 4 3 14 -1 22 -9 16 -16 79 -14 116 5 32 16 59 48 60
71 0 9 5 17 10 17 13 0 13 67 0 75 -6 4 -8 10 -5 14 5 9 -58 75 -75 77 -5 1
-17 2 -26 3 -8 0 -12 6 -9 11 3 6 -3 10 -13 10 -11 0 -22 -7 -25 -15z"/>
<path d="M1254 1999 c-3 -5 -9 -7 -14 -4 -5 3 -13 -3 -19 -12 -5 -10 -13 -15
-16 -11 -9 8 -35 -16 -35 -32 0 -6 -4 -9 -8 -6 -9 5 -48 -54 -44 -66 1 -5 -5
-8 -14 -8 -8 0 -13 -4 -10 -9 3 -5 -1 -14 -9 -21 -8 -7 -12 -16 -9 -21 3 -5 1
-9 -4 -9 -5 0 -9 -6 -9 -12 -1 -7 -11 -37 -22 -67 -11 -30 -19 -57 -16 -59 2
-3 -2 -16 -9 -31 -7 -14 -13 -39 -11 -56 1 -16 -3 -39 -8 -50 -13 -25 -15
-218 -3 -247 5 -13 10 -39 11 -58 2 -19 8 -50 13 -67 6 -18 9 -33 7 -33 -2 0
2 -12 10 -27 8 -15 12 -30 9 -35 -3 -4 0 -8 7 -8 6 0 9 -8 6 -19 -3 -12 1 -22
9 -25 32 -12 7 -31 -46 -36 -64 -6 -112 -1 -105 10 3 5 -1 14 -8 22 -7 7 -12
20 -12 28 1 8 -3 20 -8 27 -11 15 -18 53 -20 113 -1 25 -6 48 -12 52 -14 10
-15 337 -1 351 6 5 10 28 7 50 -2 29 1 42 13 49 12 7 14 14 7 27 -7 13 -6 24
5 39 8 12 12 27 9 33 -4 6 1 17 11 24 11 8 15 15 11 15 -4 0 -3 9 3 20 10 19
9 20 -25 17 -19 -3 -38 -1 -40 3 -3 4 -16 8 -30 8 -13 0 -23 -4 -20 -7 2 -4
-17 -6 -43 -5 -53 4 -85 -3 -77 -16 3 -5 -4 -7 -15 -5 -22 4 -70 -13 -81 -29
-4 -5 -12 -5 -18 -2 -6 4 -14 0 -17 -8 -3 -9 -9 -14 -13 -12 -3 2 -15 -2 -26
-10 -10 -8 -15 -14 -9 -14 5 0 -7 -11 -26 -23 -35 -22 -85 -67 -75 -67 3 0 -6
-12 -20 -27 -14 -15 -25 -33 -25 -40 0 -7 -4 -13 -8 -13 -5 0 -14 -16 -22 -35
-8 -19 -17 -35 -21 -35 -4 0 -6 -11 -4 -25 1 -15 -3 -25 -10 -25 -8 0 -11 -12
-9 -34 3 -23 0 -36 -11 -40 -12 -4 -15 -24 -15 -93 0 -61 3 -83 10 -73 5 8 10
13 11 10 0 -3 3 -23 5 -45 2 -22 7 -47 11 -55 3 -8 7 -17 8 -20 8 -31 31 -80
38 -80 4 0 5 -4 2 -10 -3 -5 -2 -10 4 -10 5 0 13 -10 17 -22 3 -12 27 -44 53
-71 42 -45 46 -54 46 -101 1 -28 5 -58 10 -66 10 -15 11 -20 14 -42 1 -7 17
-24 37 -38 l37 -24 761 -1 761 -1 43 40 c41 39 42 41 42 105 0 66 0 66 50 115
27 27 52 57 55 67 4 11 11 19 16 19 5 0 9 6 9 14 0 8 6 21 13 28 16 18 48 105
54 148 2 19 8 37 12 40 12 8 14 152 2 159 -6 4 -11 22 -13 40 -1 18 -6 35 -10
37 -4 3 -8 16 -8 30 0 13 -5 24 -11 24 -6 0 -9 7 -5 15 3 8 0 18 -7 22 -7 5
-19 22 -27 38 -8 17 -25 40 -37 51 -12 12 -20 24 -18 26 3 2 -11 20 -30 38
-19 19 -35 31 -35 27 0 -4 -14 6 -30 23 -17 17 -34 28 -39 25 -5 -3 -11 -2
-13 2 -6 14 -90 53 -114 53 -13 0 -24 4 -24 9 0 5 -28 8 -62 8 -36 0 -63 4
-65 10 -3 8 -12 7 -29 -2 -14 -7 -39 -11 -55 -8 -32 5 -34 2 -19 -27 21 -43
26 -56 25 -75 0 -11 4 -23 9 -27 5 -3 10 -17 11 -30 1 -12 7 -34 12 -47 5 -14
8 -38 7 -54 -2 -16 1 -37 6 -47 12 -22 15 -254 4 -272 -5 -7 -9 -34 -10 -59
-1 -26 -5 -53 -10 -60 -5 -8 -8 -23 -9 -35 0 -11 -5 -27 -11 -35 -6 -8 -10
-22 -9 -31 2 -10 -1 -20 -6 -24 -5 -3 -9 -16 -9 -30 0 -22 -4 -24 -47 -25 -65
-2 -115 0 -120 4 -2 3 2 17 8 33 7 16 13 31 14 34 1 3 5 12 8 20 4 8 8 25 10
37 2 12 6 26 10 29 4 4 7 22 7 40 0 18 5 36 10 39 6 3 10 44 10 91 0 46 4 84
9 84 6 0 7 10 4 23 -4 12 -8 58 -10 102 -3 44 -9 84 -14 89 -5 6 -9 25 -9 42
0 18 -5 36 -10 39 -6 4 -10 15 -8 24 2 10 -3 25 -11 34 -7 10 -10 17 -7 17 4
0 1 10 -6 23 -7 12 -11 25 -10 30 1 4 -3 7 -10 7 -6 0 -8 3 -5 6 3 4 -3 18
-13 32 -11 13 -20 31 -20 38 0 7 -9 16 -20 19 -11 3 -20 11 -20 16 0 13 -62
68 -77 69 -7 0 -13 4 -13 10 0 12 -138 12 -146 -1z"/>
<path d="M503 424 c-15 -31 -17 -47 -10 -60 6 -10 10 -45 9 -78 -1 -73 4 -96
24 -96 8 0 14 -4 14 -10 0 -7 270 -10 790 -10 696 0 790 2 790 15 0 8 4 15 9
15 17 0 24 42 23 134 0 77 -3 92 -21 110 l-22 21 -793 0 -794 1 -19 -42z"/>
</g>
</svg>
